<svg xmlns="http://www.w3.org/2000/svg" viewBox="0 0 22 22"><title>us</title><circle cx="11" cy="11" r="11" fill="#e1e1e1"/><path fill="#fff" d="M5.7 19.46h10.6a10.24 10.24 0 0 0 2.07-1.7H3.63a10.24 10.24 0 0 0 2.06 1.7zM2.47 16.2h17.06a11 11 0 0 0 .8-1.64H1.67a11 11 0 0 0 .8 1.65zM11 1zM11 1A10 10 0 0 0 1 11a10.33 10.33 0 0 0 .2 2h19.6a11.33 11.33 0 0 0 .2-1.42H11V10h10a11.1 11.1 0 0 0-.3-1.4H11V7.06h9.23a11.3 11.3 0 0 0-.8-1.5H11V4h7.2a10.2 10.2 0 0 0-1.85-1.48H11z"/><path fill="#be2033" d="M11 1zM11 1v1.54h5.35A9.9 9.9 0 0 0 11 1zM11 5.56h8.43A10.13 10.13 0 0 0 18.16 4H11zM11 8.6h9.7a9.93 9.93 0 0 0-.5-1.54H11zM11 11.58h10c0-.2 0-.4 0-.58s0-.65-.05-1H11zM1.66 14.56h18.68A10.12 10.12 0 0 0 20.8 13H1.2a10.12 10.12 0 0 0 .46 1.56zM3.63 17.75h14.74a10.9 10.9 0 0 0 1.16-1.54H2.47a10.9 10.9 0 0 0 1.16 1.55zM11 21a9.94 9.94 0 0 0 5.3-1.54H5.7A9.94 9.94 0 0 0 11 21z"/><path fill="#212f64" d="M7 1.84h-.1.1zM11 1a9.85 9.85 0 0 0-3.74.73l.06.16h.44l-.33.3.12.46-.4-.26-.38.26.1-.46-.2-.2a10.07 10.07 0 0 0-3.73 3.1h.28l.16-.47.18.47H4l-.33.3.12.47-.4-.26-.4.27.1-.47-.24-.2c-.2.27-.4.57-.57.88h.43l-.33.3.12.47-.4-.26-.12.14a10.2 10.2 0 0 0-.8 2.58h.26l-.3.28s0 .06 0 .08l.1.4-.2-.08c0 .33-.06.67-.06 1 0 .18 0 .36 0 .54h10zM2.54 11.05l-.4-.26-.38.25.1-.46-.34-.32H2l.16-.46.18.46h.44l-.33.3zM2.42 8.5l.12.5-.4-.26-.38.26.1-.47-.34-.3H2l.16-.47.18.47h.44zm1.37 1.6l-.4-.27-.4.26.1-.47-.34-.3h.45l.17-.48.18.47H4l-.33.3zm-.13-2.57L3.8 8l-.4-.26L3 8l.1-.46-.34-.3h.45l.17-.47.18.46H4zM5 11.05l-.4-.26-.38.25.1-.46-.32-.32h.45l.16-.46.2.46h.43l-.34.3zM4.9 8.5L5 9l-.4-.26-.34.26.1-.47L4 8.2h.45l.16-.46.2.47h.43zm0-2.08l.1.46-.4-.26-.38.26.1-.46-.32-.3h.45l.16-.47.2.46h.43zm0-2.13l.1.45-.4-.26-.38.25.1-.46L4 4h.45l.16-.46.2.46h.45zm1.38 5.8l-.4-.27-.37.26.12-.47-.35-.3h.44l.18-.48.18.47h.44l-.34.3zm-.12-2.57l.12.47-.4-.26L5.5 8l.12-.46-.35-.3h.44l.18-.47.18.46h.44zm0-2.13l.12.47-.4-.26-.37.27.12-.47-.35-.3h.44l.18-.47.18.47h.44zm0-2.1l.12.47-.4-.26-.37.27.12-.46-.35-.3h.44l.18-.46.18.46h.44zm1.4 7.75l-.4-.26-.4.25.12-.46-.34-.32H7l.16-.46.18.46h.44l-.33.3zM7.42 8.5l.12.5-.4-.26-.38.26.1-.47-.33-.3H7l.16-.47.18.47h.44zm0-2.08l.12.46-.4-.26-.38.26.1-.46-.33-.3H7l.16-.47.18.46h.44zm0-2.13l.12.45-.4-.26-.38.25.1-.46-.33-.3H7l.16-.46.16.46h.44zm1.37 5.8l-.4-.27-.4.26.1-.47-.34-.3h.45l.17-.48.18.47H9l-.33.3zm-.12-2.57L8.8 8l-.4-.26L8 8l.1-.46-.34-.3h.45l.17-.47.18.46H9zm0-2.13l.12.47-.4-.26-.4.27.1-.47-.34-.3h.45l.17-.47.18.47H9zm0-2.1l.12.47-.4-.26-.4.27.1-.46L7.8 3h.45l.16-.46.17.46H9zm1.44 7.75l-.4-.26-.38.25.1-.46-.34-.32h.45l.16-.46.2.46h.43l-.34.3zM10 8.5l.13.48-.4-.26-.4.28.12-.47-.35-.3h.45l.16-.47.2.47h.43zm0-2.08l.13.46-.4-.26-.38.26.1-.46-.35-.3h.45l.16-.47.2.46h.43zm0-2.13l.13.45-.4-.26-.38.25.1-.46L9.1 4h.45l.16-.46.2.46h.43zm0-2.1l.13.46-.4-.26-.38.26.1-.46-.35-.3h.45l.16-.47.2.46h.43z"/></svg>