<svg viewBox="0 0 24 24" xmlns="http://www.w3.org/2000/svg" class="flix-icon arrow-right"><path d="M14.8306 12.354L9.88056 17.3C9.78626 17.3911 9.65996 17.4415 9.52886 17.4404C9.39776 17.4392 9.27235 17.3866 9.17965 17.2939C9.08695 17.2012 9.03436 17.0758 9.03322 16.9447C9.03208 16.8136 9.08248 16.6873 9.17356 16.593L13.7676 12L9.16756 7.40002C9.08867 7.30368 9.04857 7.18137 9.05511 7.05702C9.06164 6.93268 9.11433 6.81524 9.20288 6.7277C9.29142 6.64015 9.40945 6.58879 9.53386 6.58367C9.65827 6.57856 9.78012 6.62004 9.87556 6.70002L14.8156 11.639C14.8156 11.644 14.8256 11.645 14.8306 11.649C14.9237 11.7427 14.976 11.8694 14.976 12.0015C14.976 12.1336 14.9237 12.2603 14.8306 12.354Z"/></svg>