<svg viewBox="0 0 24 24" xmlns="http://www.w3.org/2000/svg" class="flix-icon leaf"><path d="M2.5001 22C2.44253 21.9999 2.38539 21.9901 2.3311 21.971C2.20738 21.926 2.10641 21.834 2.0501 21.715C2.02178 21.6562 2.00559 21.5924 2.0025 21.5273C1.99941 21.4622 2.00947 21.3971 2.0321 21.336C2.48969 20.0749 3.05477 18.8554 3.7211 17.691C3.56571 17.4835 3.44514 17.2522 3.3641 17.006C2.7511 15.055 1.7191 10.127 5.3571 6.49297C9.2631 2.58897 18.1711 2.06697 20.8091 1.99997C20.9769 1.99874 21.1431 2.03242 21.2972 2.09887C21.4513 2.16532 21.5898 2.26309 21.7041 2.38597C21.817 2.51173 21.9011 2.66069 21.9503 2.82239C21.9995 2.98409 22.0128 3.15461 21.9891 3.32197C21.6891 5.51197 20.4191 12.961 16.5731 16.803C15.6651 17.6718 14.5903 18.3475 13.4139 18.7894C12.2374 19.2313 10.9836 19.4301 9.7281 19.374C8.13507 19.358 6.55246 19.1149 5.0281 18.652C4.83206 18.5905 4.64458 18.5045 4.4701 18.396C3.88198 19.4451 3.38032 20.5404 2.9701 21.671C2.935 21.7674 2.87106 21.8507 2.78698 21.9096C2.7029 21.9684 2.60274 22 2.5001 22ZM4.9631 17.533C5.07169 17.6057 5.19026 17.6623 5.3151 17.701C7.3851 18.321 12.5581 19.409 15.8711 16.101C19.4921 12.481 20.7161 5.29997 21.0001 3.18597C21.0037 3.16216 21.0021 3.13785 20.9955 3.11471C20.9888 3.09156 20.9773 3.0701 20.9617 3.0518C20.946 3.03349 20.9266 3.01877 20.9048 3.00862C20.8829 2.99847 20.8592 2.99313 20.8351 2.99297C18.2871 3.05797 9.7041 3.54997 6.0551 7.19297C2.8011 10.444 3.7481 14.929 4.3061 16.706V16.712C6.44986 13.248 9.56999 10.4953 13.2741 8.79997C13.3349 8.76351 13.4028 8.74041 13.4733 8.73221C13.5437 8.724 13.6151 8.73087 13.6827 8.75237C13.7503 8.77387 13.8125 8.8095 13.8653 8.8569C13.918 8.90429 13.9601 8.96237 13.9887 9.02728C14.0173 9.09218 14.0317 9.16242 14.0311 9.23334C14.0305 9.30426 14.0148 9.37424 13.985 9.43861C13.9552 9.50299 13.9121 9.56031 13.8585 9.60675C13.8049 9.65319 13.7421 9.68769 13.6741 9.70797C10.0437 11.3728 7.00508 14.1017 4.9611 17.533H4.9631Z"/></svg>