<svg viewBox="0 0 24 24" xmlns="http://www.w3.org/2000/svg" class="flix-icon mask"><path d="M18.743 8.75702L17.58 9.27802C17.5744 9.2574 17.5707 9.23631 17.569 9.21502C17.3924 7.48799 16.5732 5.89041 15.2738 4.73918C13.9744 3.58795 12.2897 2.96718 10.554 3.00002C8.71479 2.97165 6.93939 3.67377 5.61706 4.95242C4.29473 6.23106 3.5334 7.98189 3.5 9.82102C3.51788 10.9355 3.7775 12.0328 4.26093 13.0371C4.74436 14.0415 5.44008 14.9289 6.3 15.638C6.33414 15.6658 6.36222 15.7003 6.38251 15.7393C6.40281 15.7783 6.41489 15.8211 6.418 15.865V19.465C6.42269 19.7346 6.52778 19.9928 6.71272 20.189C6.89766 20.3852 7.14915 20.5054 7.418 20.526L13.018 21H13.118C13.4021 21.0036 13.6763 20.8959 13.882 20.7C13.9923 20.6027 14.0808 20.4832 14.1416 20.3493C14.2024 20.2154 14.2343 20.0701 14.235 19.923V18.738L14.5 19C15.6868 19.0002 16.847 18.6483 17.8338 17.9891C18.8206 17.3298 19.5898 16.3927 20.044 15.2962C20.4981 14.1998 20.617 12.9933 20.3854 11.8293C20.1538 10.6653 19.5823 9.59614 18.743 8.75702ZM10.554 4.00002C12.0343 3.97143 13.4718 4.49685 14.5847 5.47326C15.6977 6.44967 16.4057 7.80662 16.57 9.27802C16.5795 9.41894 16.6095 9.55772 16.659 9.69002L11.98 11.79L4.693 8.39002C5.05135 7.11568 5.81974 5.99498 6.87925 5.20139C7.93877 4.4078 9.23031 3.98556 10.554 4.00002ZM7.065 15C7.04 14.973 7.025 14.946 6.997 14.919L6.971 14.894L6.944 14.871C6.19643 14.2554 5.59093 13.4853 5.16906 12.6136C4.74719 11.7419 4.51895 10.7893 4.5 9.82102C4.5 9.68302 4.512 9.54702 4.522 9.41102L3.959 9.14802L11.5 12.665V15H7.065ZM13.238 19.92L13.19 19.978C13.1808 19.9865 13.1698 19.9928 13.1579 19.9966C13.146 20.0004 13.1334 20.0016 13.121 20H13.065L7.518 19.531C7.455 19.525 7.418 19.488 7.418 19.465V16H11.5L13.238 17.738V19.92ZM14.898 17.984L12.498 15.584V12.648L18.477 9.97102C19.0208 10.6851 19.3623 11.5325 19.4657 12.4241C19.5691 13.3157 19.4306 14.2186 19.0647 15.0383C18.6989 15.8579 18.1191 16.5639 17.3863 17.0822C16.6535 17.6005 15.7947 17.912 14.9 17.984H14.898ZM14 13.25C14 13.3489 13.9707 13.4456 13.9157 13.5278C13.8608 13.61 13.7827 13.6741 13.6913 13.712C13.6 13.7498 13.4994 13.7597 13.4025 13.7404C13.3055 13.7211 13.2164 13.6735 13.1464 13.6036C13.0765 13.5336 13.0289 13.4446 13.0096 13.3476C12.9903 13.2506 13.0002 13.15 13.0381 13.0587C13.0759 12.9673 13.14 12.8892 13.2222 12.8343C13.3044 12.7793 13.4011 12.75 13.5 12.75C13.6326 12.75 13.7598 12.8027 13.8536 12.8965C13.9473 12.9902 14 13.1174 14 13.25ZM15.5 12.5C15.5 12.5989 15.4707 12.6956 15.4157 12.7778C15.3608 12.86 15.2827 12.9241 15.1913 12.962C15.1 12.9998 14.9994 13.0097 14.9025 12.9904C14.8055 12.9711 14.7164 12.9235 14.6464 12.8536C14.5765 12.7836 14.5289 12.6946 14.5096 12.5976C14.4903 12.5006 14.5002 12.4 14.5381 12.3087C14.5759 12.2173 14.64 12.1392 14.7222 12.0843C14.8044 12.0293 14.9011 12 15 12C15.1326 12 15.2598 12.0527 15.3536 12.1465C15.4473 12.2402 15.5 12.3674 15.5 12.5ZM17 11.75C17 11.8489 16.9707 11.9456 16.9157 12.0278C16.8608 12.11 16.7827 12.1741 16.6913 12.212C16.6 12.2498 16.4994 12.2597 16.4025 12.2404C16.3055 12.2211 16.2164 12.1735 16.1464 12.1036C16.0765 12.0336 16.0289 11.9446 16.0096 11.8476C15.9903 11.7506 16.0002 11.65 16.0381 11.5587C16.0759 11.4673 16.14 11.3892 16.2222 11.3343C16.3044 11.2793 16.4011 11.25 16.5 11.25C16.6326 11.25 16.7598 11.3027 16.8536 11.3965C16.9473 11.4902 17 11.6174 17 11.75ZM13 9.00002C13 8.80224 13.0586 8.6089 13.1685 8.44445C13.2784 8.28 13.4346 8.15183 13.6173 8.07614C13.8 8.00045 14.0011 7.98065 14.1951 8.01923C14.3891 8.05782 14.5673 8.15306 14.7071 8.29291C14.847 8.43276 14.9422 8.61095 14.9808 8.80493C15.0194 8.99891 14.9996 9.19998 14.9239 9.3827C14.8482 9.56543 14.72 9.72161 14.5556 9.83149C14.3911 9.94137 14.1978 10 14 10C13.7348 10 13.4804 9.89466 13.2929 9.70712C13.1054 9.51959 13 9.26523 13 9.00002Z"/></svg>