<svg viewBox="0 0 24 24" xmlns="http://www.w3.org/2000/svg" class="flix-icon question"><path d="M12 2C10.0222 2 8.08879 2.58649 6.4443 3.6853C4.79981 4.78412 3.51809 6.3459 2.76121 8.17317C2.00433 10.0004 1.8063 12.0111 2.19215 13.9509C2.578 15.8907 3.53041 17.6725 4.92894 19.0711C6.32746 20.4696 8.10929 21.422 10.0491 21.8079C11.9889 22.1937 13.9996 21.9957 15.8268 21.2388C17.6541 20.4819 19.2159 19.2002 20.3147 17.5557C21.4135 15.9112 22 13.9778 22 12C22 10.6868 21.7413 9.38642 21.2388 8.17317C20.7363 6.95991 19.9997 5.85752 19.0711 4.92893C18.1425 4.00035 17.0401 3.26375 15.8268 2.7612C14.6136 2.25866 13.3132 2 12 2ZM12 21C10.22 21 8.47991 20.4722 6.99987 19.4832C5.51983 18.4943 4.36628 17.0887 3.68509 15.4442C3.0039 13.7996 2.82567 11.99 3.17294 10.2442C3.5202 8.49836 4.37737 6.89471 5.63604 5.63604C6.89472 4.37737 8.49836 3.5202 10.2442 3.17293C11.99 2.82567 13.7996 3.0039 15.4442 3.68508C17.0887 4.36627 18.4943 5.51983 19.4832 6.99987C20.4722 8.47991 21 10.22 21 12C20.9974 14.3861 20.0483 16.6738 18.361 18.361C16.6738 20.0483 14.3861 20.9974 12 21Z"/><path d="M12.027 5.99995C11.3597 5.99712 10.7073 6.19734 10.1564 6.57403C9.6056 6.95072 9.18238 7.48606 8.94297 8.10895C8.87846 8.28231 8.82927 8.461 8.79597 8.64295C8.78435 8.70763 8.78558 8.77396 8.7996 8.83816C8.81361 8.90236 8.84013 8.96317 8.87765 9.01712C8.95341 9.12608 9.06936 9.20048 9.19997 9.22395C9.33059 9.24742 9.46519 9.21804 9.57415 9.14228C9.6831 9.06652 9.7575 8.95057 9.78097 8.81995C9.80285 8.69673 9.83633 8.57586 9.88097 8.45895C10.0484 8.02673 10.3433 7.65568 10.7266 7.39508C11.11 7.13448 11.5635 6.99667 12.027 6.99995C12.3185 6.99189 12.6086 7.04387 12.8792 7.15267C13.1499 7.26148 13.3952 7.42477 13.6 7.63242C13.8049 7.84006 13.9648 8.08761 14.0699 8.35968C14.175 8.63175 14.223 8.92253 14.211 9.21395C14.211 10.093 13.158 11.068 12.711 11.484C12.625 11.564 12.552 11.632 12.501 11.684C12.1681 11.9685 11.8964 12.3177 11.7024 12.7102C11.5083 13.1028 11.3959 13.5307 11.372 13.968V14.1C11.372 14.2326 11.4247 14.3597 11.5184 14.4535C11.6122 14.5473 11.7394 14.6 11.872 14.6C12.0046 14.6 12.1318 14.5473 12.2255 14.4535C12.3193 14.3597 12.372 14.2326 12.372 14.1V13.966C12.3971 13.6601 12.4841 13.3626 12.6279 13.0915C12.7716 12.8204 12.969 12.5814 13.208 12.389L13.39 12.217C13.983 11.668 15.214 10.527 15.214 9.21695C15.226 8.79377 15.1519 8.37256 14.9964 7.97882C14.8409 7.58508 14.6071 7.22699 14.3091 6.92624C14.0112 6.62549 13.6553 6.38833 13.263 6.22911C12.8707 6.06989 12.4502 5.99193 12.027 5.99995Z"/><path d="M12 18C12.5523 18 13 17.5523 13 17C13 16.4477 12.5523 16 12 16C11.4477 16 11 16.4477 11 17C11 17.5523 11.4477 18 12 18Z"/></svg>