<svg viewBox="0 0 24 24" xmlns="http://www.w3.org/2000/svg" class="flix-icon star"><path d="M21.184 9.33601L16.934 8.71901C16.4499 8.6202 15.9926 8.41876 15.5929 8.12827C15.1932 7.83777 14.8605 7.46498 14.617 7.03501L12.717 3.18301C12.517 2.78301 12.261 2.58301 12.001 2.58301C11.741 2.58301 11.482 2.78301 11.285 3.18301L9.38503 7.03501C9.14138 7.4652 8.8083 7.83814 8.40825 8.12864C8.00821 8.41914 7.5505 8.62046 7.06603 8.71901L2.81603 9.33601C1.93503 9.46401 1.73603 10.077 2.37303 10.698L5.44903 13.698C5.78252 14.0625 6.03406 14.4942 6.18671 14.9641C6.33937 15.434 6.3896 15.9311 6.33403 16.422L5.60803 20.655C5.49903 21.291 5.74303 21.665 6.18503 21.665C6.38937 21.6565 6.58865 21.5988 6.76603 21.497L10.566 19.497C11.0131 19.2825 11.5043 19.1759 12 19.186C12.495 19.176 12.9855 19.2821 13.432 19.496L17.232 21.496C17.4095 21.5977 17.6087 21.6553 17.813 21.664C18.255 21.664 18.499 21.29 18.39 20.654L17.664 16.421C17.6084 15.9301 17.6587 15.433 17.8113 14.9631C17.964 14.4932 18.2155 14.0615 18.549 13.697L21.625 10.697C22.264 10.077 22.065 9.46401 21.184 9.33601ZM17.853 12.98C17.4027 13.4573 17.064 14.0287 16.8614 14.6528C16.6587 15.2769 16.5971 15.9382 16.681 16.589L17.338 20.42L13.9 18.611C13.3093 18.3209 12.6581 18.1753 12 18.186C11.342 18.1753 10.6908 18.3209 10.1 18.611L6.66203 20.42L7.31903 16.589C7.40296 15.9382 7.34137 15.2769 7.13869 14.6528C6.93602 14.0287 6.59731 13.4573 6.14703 12.98L3.36403 10.267L7.21003 9.70801C7.85487 9.58662 8.46473 9.32362 8.99562 8.93799C9.52651 8.55236 9.96519 8.05371 10.28 7.47801L12 3.99201L13.72 7.47801C14.0349 8.05371 14.4735 8.55236 15.0044 8.93799C15.5353 9.32362 16.1452 9.58662 16.79 9.70801L20.636 10.267L17.853 12.98Z"/></svg>