<svg viewBox="0 0 24 24" xmlns="http://www.w3.org/2000/svg" class="flix-icon ticket"><path d="M17.1999 11.637C17.2706 11.7079 17.3187 11.7982 17.3382 11.8964C17.3577 11.9946 17.3477 12.0964 17.3094 12.1889C17.2711 12.2814 17.2063 12.3605 17.1231 12.4162C17.0399 12.472 16.942 12.5018 16.8419 12.502C16.7754 12.5024 16.7095 12.4895 16.648 12.4641C16.5865 12.4387 16.5307 12.4012 16.4839 12.354L11.6539 7.524C11.564 7.42773 11.515 7.3003 11.5173 7.1686C11.5195 7.0369 11.5729 6.91122 11.666 6.81808C11.7591 6.72494 11.8848 6.67162 12.0165 6.66936C12.1482 6.66711 12.2756 6.7161 12.3719 6.806L17.1999 11.637ZM21.9999 10.184C22.0003 10.3084 21.9761 10.4317 21.9285 10.5467C21.881 10.6618 21.8111 10.7662 21.7229 10.854L10.8589 21.723C10.681 21.9003 10.4401 21.9999 10.1889 21.9999C9.93773 21.9999 9.6968 21.9003 9.51891 21.723L7.61891 19.823C7.47638 19.6899 7.37925 19.5154 7.34121 19.3241C7.30317 19.1329 7.32615 18.9345 7.40691 18.757C7.5582 18.454 7.6104 18.1111 7.55613 17.7768C7.50186 17.4425 7.34387 17.1337 7.1045 16.8941C6.86513 16.6545 6.5565 16.4963 6.22225 16.4417C5.88801 16.3871 5.54506 16.439 5.24191 16.59C5.06446 16.6697 4.86658 16.6923 4.67574 16.6545C4.4849 16.6167 4.31056 16.5204 4.17691 16.379L2.27691 14.479C2.09958 14.3011 2 14.0602 2 13.809C2 13.5578 2.09958 13.3169 2.27691 13.139L13.1399 2.269C13.3204 2.09662 13.5603 2.00043 13.8099 2.00043C14.0595 2.00043 14.2994 2.09662 14.4799 2.269L16.3799 4.169C16.521 4.30285 16.617 4.47724 16.6546 4.66804C16.6922 4.85884 16.6696 5.05662 16.5899 5.234C16.4383 5.53728 16.386 5.88058 16.4404 6.21524C16.4948 6.5499 16.6532 6.85895 16.893 7.09859C17.1329 7.33823 17.4421 7.4963 17.7768 7.5504C18.1115 7.60449 18.4548 7.55188 18.7579 7.4C18.9356 7.32222 19.133 7.30084 19.3232 7.33875C19.5135 7.37666 19.6876 7.47203 19.8219 7.612L21.7219 9.512C21.8105 9.59997 21.8807 9.70469 21.9285 9.82006C21.9762 9.93543 22.0005 10.0591 21.9999 10.184ZM20.9399 10.203L19.1189 8.343C18.7812 8.5054 18.4107 8.58819 18.0359 8.585C17.596 8.58504 17.1632 8.47467 16.777 8.26399C16.3909 8.05331 16.0638 7.74907 15.8257 7.37916C15.5877 7.00925 15.4463 6.58551 15.4145 6.14677C15.3828 5.70803 15.4616 5.26834 15.6439 4.868L13.8089 3.032L3.05791 13.789L4.87991 15.648C5.21803 15.4856 5.58884 15.4028 5.96391 15.406C6.30906 15.4047 6.65102 15.4721 6.96984 15.6043C7.28867 15.7365 7.57798 15.9308 7.82091 16.176C8.19951 16.5546 8.4535 17.0397 8.54893 17.5665C8.64436 18.0933 8.57667 18.6367 8.35491 19.124L10.1689 20.939L20.9399 10.203Z"/></svg>